<svg width="278" height="278" viewBox="0 0 278 278" fill="none" xmlns="http://www.w3.org/2000/svg">
<path d="M131.76 278C129.106 262.314 122.108 245.422 110.766 227.323C99.4236 208.983 83.2552 191.97 62.2604 176.284C41.5069 160.598 20.7535 150.583 0 146.24V131.036C20.5122 126.21 40.1797 117.281 59.0026 104.25C78.0668 90.9774 93.9939 75.0503 106.784 56.4687C119.815 37.4045 128.141 18.5816 131.76 0H146.964C149.135 12.066 153.479 24.4939 159.995 37.2838C166.51 49.8325 174.836 61.8984 184.971 73.4818C195.348 84.8238 206.931 95.0799 219.721 104.25C238.786 117.764 258.212 126.693 278 131.036V146.24C264.727 148.894 250.972 154.324 236.734 162.529C222.738 170.734 209.707 180.507 197.641 191.849C185.575 202.95 175.681 214.654 167.958 226.961C156.616 245.06 149.618 262.073 146.964 278H131.76Z" fill="#00F2B8"/>
</svg>
