<svg width="278" height="278" viewBox="0 0 278 278" fill="none" xmlns="http://www.w3.org/2000/svg">
<path d="M127.544 278L132.89 168.022L96.2308 271.89L74.8462 263.489L122.198 163.44L48.8791 245.923L32.0769 229.121L114.56 155.802L14.511 203.154L6.10989 181.769L109.978 145.11L0 150.456V127.544L109.978 133.654L6.10989 96.2307L14.511 75.6099L114.56 122.962L32.0769 48.8791L48.8791 32.8406L122.198 114.56L74.8462 15.2747L96.2308 6.10988L132.89 110.742L127.544 0H150.456L144.346 109.978L181.769 6.10988L202.39 15.2747L155.038 114.56L229.121 32.8406L245.159 48.8791L163.44 122.962L262.725 75.6099L271.89 96.2307L167.258 133.654L278 127.544V150.456L167.258 145.11L271.89 181.769L262.725 203.154L163.44 155.802L245.159 229.121L229.121 245.923L155.038 163.44L202.39 263.489L181.769 271.89L144.346 168.022L150.456 278H127.544Z" fill="#FCA31D"/>
</svg>
